<?xml version="1.0" standalone="no"?><!DOCTYPE svg PUBLIC "-//W3C//DTD SVG 1.1//EN" "http://www.w3.org/Graphics/SVG/1.1/DTD/svg11.dtd"><svg t="1607314434761" class="icon" viewBox="0 0 1024 1024" version="1.1" xmlns="http://www.w3.org/2000/svg" p-id="1026" xmlns:xlink="http://www.w3.org/1999/xlink" width="200" height="200"><defs><style type="text/css"></style></defs><path d="M544 784c0-115.2 80-211.2 188.8-233.6-44.8-25.6-99.2-38.4-156.8-38.4h-128C214.4 512 64 739.2 64 896c0 44.8 35.2 80 80 80H640c-57.6-44.8-96-112-96-192z" p-id="1027" fill="#F1C72E"></path><path d="M512 272m-224 0a224 224 0 1 0 448 0 224 224 0 1 0-448 0Z" p-id="1028" fill="#F1C72E"></path><path d="M928 736h-128v-128c0-19.2-12.8-32-32-32s-32 12.8-32 32v128h-128c-19.2 0-32 12.8-32 32s12.8 32 32 32h128v128c0 19.2 12.8 32 32 32s32-12.8 32-32v-128h128c19.2 0 32-12.8 32-32s-12.8-32-32-32z" p-id="1029" fill="#F1C72E"></path></svg>