<?xml version="1.0" encoding="utf-8"?>
<!-- Generator: Adobe Illustrator 18.0.0, SVG Export Plug-In . SVG Version: 6.00 Build 0)  -->
<!DOCTYPE svg PUBLIC "-//W3C//DTD SVG 1.1//EN" "http://www.w3.org/Graphics/SVG/1.1/DTD/svg11.dtd">
<svg version="1.1" id="Layer_1" xmlns="http://www.w3.org/2000/svg" xmlns:xlink="http://www.w3.org/1999/xlink" x="0px" y="0px"
	 viewBox="689.6 0 50 41.8" enable-background="new 689.6 0 50 41.8" xml:space="preserve">
<g>
	<path opacity="0.2" enable-background="new    " d="M722.6,38.9c0,1.6-1.5,2.9-3.3,2.9c-1.8,0-3.3-1.3-3.3-3.1
		c0-1.6,1.5-2.9,3.3-2.9C721.1,35.8,722.6,37.3,722.6,38.9z M721,38.9c0-0.7-0.7-1.5-1.6-1.5c-0.9,0-1.6,0.7-1.6,1.5
		c0,0.7,0.7,1.5,1.6,1.5S721,39.7,721,38.9z M697.2,35.5c1.8,0,3.3,1.3,3.3,3.1c0,1.6-1.5,2.9-3.3,2.9s-3.3-1.3-3.3-3.1
		C693.9,36.7,695.4,35.5,697.2,35.5z M695.6,38.4c0,0.7,0.7,1.5,1.6,1.5c0.9,0,1.6-0.7,1.6-1.5c0-0.7-0.7-1.5-1.6-1.5
		C696.3,36.9,695.6,37.6,695.6,38.4z M739.6,2.5c0,1.1-1.1,2-2.2,2c-0.9,0-1.8-0.5-2-1.3h-1.6l-11.1,30.9l0,0c0,0.5-0.5,1.1-1.1,1.1
		h-24.1h-2.2c-0.5,0-1.1-0.5-1.1-1.1c0-0.5,0.5-1.1,1.1-1.1h25.2l3.1-8.6h-28.1c-0.5,0-0.9-0.2-1.1-0.5c-0.2-0.2-0.4-0.4-0.4-0.5
		l-3.7-13.5l0,0c0-0.2,0-0.2,0-0.2s0,0,0-0.2l0,0c0,0,0,0,0-0.2c0,0,0,0,0-0.2V9l0,0c0.2-0.4,0.5-0.7,1.1-0.7l0,0l0,0H729l2.4-6.8
		c0.2-0.5,0.7-0.7,1.3-0.7l0,0h3.3c0.5,0,0.9-0.2,1.5-0.2C738.7,0.5,739.6,1.5,739.6,2.5z M728.3,10.8h-4l-0.7,2.2h4L728.3,10.8z
		 M726.6,15.3h-4l-0.7,2.2h4L726.6,15.3z M717.7,22.1l0.7-2.4h-4.2l-0.5,2.4H717.7z M711.1,22.1l0.5-2.4h-4.2l-0.2,2.4H711.1z
		 M704.9,22.1l0.2-2.4h-4.4l0.2,2.4H704.9z M698.3,22.1l-0.2-2.4h-2.6l0.5,2.4H698.3z M708.3,10.6l-0.2,2.4h5.3l0.5-2.2L708.3,10.6z
		 M716.6,10.8L716,13h4.8l0.7-2.2H716.6z M695,17.4h2.9l-0.2-2.2h-3.5L695,17.4z M700.5,17.4h4.8l0.2-2.2h-5.1L700.5,17.4z
		 M707.8,17.4h4.6l0.5-2.2H708L707.8,17.4z M705.8,10.6h-5.9l0.2,2.2h5.5L705.8,10.6z M697.4,10.6h-4.2l0.5,2.4h0.2h3.7L697.4,10.6z
		 M719.3,17.4l0.7-2.2h-4.6l-0.5,2.2H719.3z M724.2,22.1l0.9-2.4h-3.8l-0.7,2.4H724.2z"/>
	<path fill="#F66BC6" d="M722,38.4c0,1.6-1.5,2.9-3.3,2.9c-1.8,0-3.3-1.3-3.3-3.1c0-1.6,1.5-2.9,3.3-2.9
		C720.5,35.3,722,36.7,722,38.4z M720.3,38.4c0-0.7-0.7-1.5-1.6-1.5s-1.6,0.7-1.6,1.5c0,0.7,0.7,1.5,1.6,1.5S720.3,39.1,720.3,38.4z
		 M696.6,34.9c1.8,0,3.3,1.3,3.3,3.1c0,1.6-1.5,2.9-3.3,2.9c-1.8,0-3.3-1.3-3.3-3.1C693.3,36.2,694.7,34.9,696.6,34.9z M694.9,37.8
		c0,0.7,0.7,1.5,1.6,1.5c0.9,0,1.6-0.7,1.6-1.5c0-0.7-0.7-1.5-1.6-1.5S694.9,37.1,694.9,37.8z M738.9,2c0,1.1-1.1,2-2.2,2
		c-0.9,0-1.8-0.5-2-1.3h-1.6L722,33.6l0,0c0,0.5-0.5,1.1-1.1,1.1h-24.1h-2.2c-0.5,0-1.1-0.5-1.1-1.1c0-0.5,0.5-1.1,1.1-1.1h25.2
		l3.1-8.6h-28.1c-0.5,0-0.9-0.2-1.1-0.5c-0.2-0.2-0.4-0.4-0.4-0.5l-3.7-13.5l0,0c0-0.2,0-0.2,0-0.2s0,0,0-0.2l0,0c0,0,0,0,0-0.2
		c0,0,0,0,0-0.2V8.4l0,0c0.2-0.4,0.5-0.7,1.1-0.7l0,0l0,0h37.7l2.4-6.8c0.2-0.5,0.7-0.7,1.3-0.7l0,0h3.3c0.5,0,0.9-0.2,1.5-0.2
		C738,0,738.9,0.9,738.9,2z M727.6,10.2h-4l-0.7,2.2h4L727.6,10.2z M726,14.8h-4l-0.7,2.2h4L726,14.8z M717,21.6l0.7-2.4h-4.2
		l-0.5,2.4H717z M710.4,21.6l0.5-2.4h-4.2l-0.2,2.4H710.4z M704.2,21.6l0.2-2.4H700l0.2,2.4H704.2z M697.6,21.6l-0.2-2.4h-2.6
		l0.5,2.4H697.6z M707.7,10.1l-0.2,2.4h5.3l0.5-2.2L707.7,10.1z M715.9,10.2l-0.5,2.2h4.8l0.7-2.2H715.9z M694.4,16.8h2.9l-0.2-2.2
		h-3.5L694.4,16.8z M699.8,16.8h4.8l0.2-2.2h-5.1L699.8,16.8z M707.1,16.8h4.6l0.5-2.2h-4.9L707.1,16.8z M705.1,10.1h-5.9l0.2,2.2
		h5.5L705.1,10.1z M696.7,10.1h-4.2l0.5,2.4h0.2h3.7L696.7,10.1z M718.7,16.8l0.7-2.2h-4.6l-0.5,2.2H718.7z M723.6,21.6l0.9-2.4
		h-3.8l-0.7,2.4H723.6z"/>
</g>
</svg>
